<mxfile host="app.diagrams.net" modified="2023-10-25T12:49:10.916Z" agent="Mozilla/5.0 (Windows NT 10.0; Win64; x64) AppleWebKit/537.36 (KHTML, like Gecko) Chrome/116.0.0.0 Safari/537.36 OPR/102.0.0.0" etag="abrEFTEVv9vATaMMIenH" version="22.0.8" type="google" pages="4">
  <diagram name="Kontektsni Dijagram" id="RDYhzduAMfApsykBue8a">
    <mxGraphModel grid="1" page="1" gridSize="10" guides="1" tooltips="1" connect="1" arrows="1" fold="1" pageScale="1" pageWidth="850" pageHeight="1100" math="0" shadow="0">
      <root>
        <mxCell id="0" />
        <mxCell id="1" parent="0" />
        <mxCell id="B_sQUbjfNt2Lw5YE6eTL-1" value="- Proces Susenja Sljive -&lt;br&gt;- Obrada Suve Sljive -" style="rounded=0;whiteSpace=wrap;html=1;" vertex="1" parent="1">
          <mxGeometry x="320" y="250" width="180" height="100" as="geometry" />
        </mxCell>
        <mxCell id="B_sQUbjfNt2Lw5YE6eTL-3" value="Sirova Sljiva" style="endArrow=classic;html=1;rounded=0;" edge="1" parent="1">
          <mxGeometry relative="1" as="geometry">
            <mxPoint x="220" y="260" as="sourcePoint" />
            <mxPoint x="320" y="260" as="targetPoint" />
          </mxGeometry>
        </mxCell>
        <mxCell id="B_sQUbjfNt2Lw5YE6eTL-5" value="Konzervansi" style="endArrow=classic;html=1;rounded=0;" edge="1" parent="1">
          <mxGeometry relative="1" as="geometry">
            <mxPoint x="220" y="280" as="sourcePoint" />
            <mxPoint x="320" y="280" as="targetPoint" />
          </mxGeometry>
        </mxCell>
        <mxCell id="B_sQUbjfNt2Lw5YE6eTL-6" value="Energija" style="endArrow=classic;html=1;rounded=0;" edge="1" parent="1">
          <mxGeometry relative="1" as="geometry">
            <mxPoint x="220" y="320" as="sourcePoint" />
            <mxPoint x="320" y="320" as="targetPoint" />
          </mxGeometry>
        </mxCell>
        <mxCell id="B_sQUbjfNt2Lw5YE6eTL-7" value="Ambalaza" style="endArrow=classic;html=1;rounded=0;" edge="1" parent="1">
          <mxGeometry relative="1" as="geometry">
            <mxPoint x="220" y="340" as="sourcePoint" />
            <mxPoint x="320" y="340" as="targetPoint" />
          </mxGeometry>
        </mxCell>
        <mxCell id="B_sQUbjfNt2Lw5YE6eTL-8" value="Suva Sljiva" style="endArrow=classic;html=1;rounded=0;" edge="1" parent="1">
          <mxGeometry relative="1" as="geometry">
            <mxPoint x="500" y="260" as="sourcePoint" />
            <mxPoint x="600" y="260" as="targetPoint" />
          </mxGeometry>
        </mxCell>
        <mxCell id="B_sQUbjfNt2Lw5YE6eTL-10" value="Ponuda" style="endArrow=classic;html=1;rounded=0;" edge="1" parent="1">
          <mxGeometry relative="1" as="geometry">
            <mxPoint x="500" y="340" as="sourcePoint" />
            <mxPoint x="600" y="340" as="targetPoint" />
            <mxPoint as="offset" />
          </mxGeometry>
        </mxCell>
        <mxCell id="B_sQUbjfNt2Lw5YE6eTL-11" value="Isplata" style="endArrow=classic;html=1;rounded=0;" edge="1" parent="1">
          <mxGeometry relative="1" as="geometry">
            <mxPoint x="500" y="320" as="sourcePoint" />
            <mxPoint x="600" y="320" as="targetPoint" />
          </mxGeometry>
        </mxCell>
        <mxCell id="B_sQUbjfNt2Lw5YE6eTL-13" value="Prevoz" style="endArrow=classic;html=1;rounded=0;" edge="1" parent="1">
          <mxGeometry relative="1" as="geometry">
            <mxPoint x="500" y="280" as="sourcePoint" />
            <mxPoint x="600" y="280" as="targetPoint" />
            <mxPoint as="offset" />
          </mxGeometry>
        </mxCell>
        <mxCell id="B_sQUbjfNt2Lw5YE6eTL-14" value="Pravila Rada" style="endArrow=classic;html=1;rounded=0;entryX=0.256;entryY=-0.033;entryDx=0;entryDy=0;entryPerimeter=0;" edge="1" parent="1">
          <mxGeometry relative="1" as="geometry">
            <mxPoint x="360" y="173.3" as="sourcePoint" />
            <mxPoint x="360.08000000000004" y="250.00000000000006" as="targetPoint" />
          </mxGeometry>
        </mxCell>
        <mxCell id="B_sQUbjfNt2Lw5YE6eTL-15" value="Provera Kvaliteta" style="endArrow=classic;html=1;rounded=0;entryX=0.256;entryY=-0.033;entryDx=0;entryDy=0;entryPerimeter=0;" edge="1" parent="1">
          <mxGeometry relative="1" as="geometry">
            <mxPoint x="460" y="173.3" as="sourcePoint" />
            <mxPoint x="460.08000000000004" y="250.00000000000006" as="targetPoint" />
          </mxGeometry>
        </mxCell>
        <mxCell id="B_sQUbjfNt2Lw5YE6eTL-16" value="Radnici" style="endArrow=classic;html=1;rounded=0;entryX=0.227;entryY=1.013;entryDx=0;entryDy=0;entryPerimeter=0;" edge="1" parent="1" target="B_sQUbjfNt2Lw5YE6eTL-1">
          <mxGeometry x="-0.1265" relative="1" as="geometry">
            <mxPoint x="360" y="420" as="sourcePoint" />
            <mxPoint x="360.08000000000004" y="446.70000000000005" as="targetPoint" />
            <mxPoint as="offset" />
          </mxGeometry>
        </mxCell>
        <mxCell id="B_sQUbjfNt2Lw5YE6eTL-19" value="Masine" style="endArrow=classic;html=1;rounded=0;entryX=0.227;entryY=1.013;entryDx=0;entryDy=0;entryPerimeter=0;" edge="1" parent="1">
          <mxGeometry x="-0.1265" relative="1" as="geometry">
            <mxPoint x="460" y="419" as="sourcePoint" />
            <mxPoint x="461" y="350" as="targetPoint" />
            <mxPoint as="offset" />
          </mxGeometry>
        </mxCell>
      </root>
    </mxGraphModel>
  </diagram>
  <diagram id="HyEoxW27ij7UtiJflck7" name="Prvi Nivo Dekompozicije">
    <mxGraphModel grid="1" page="1" gridSize="10" guides="1" tooltips="1" connect="1" arrows="1" fold="1" pageScale="1" pageWidth="850" pageHeight="1100" background="none" math="0" shadow="0">
      <root>
        <mxCell id="0" />
        <mxCell id="1" parent="0" />
        <mxCell id="fAGZzun96ZNq2qjuGH73-1" value="Nabavka" style="rounded=0;whiteSpace=wrap;html=1;" vertex="1" parent="1">
          <mxGeometry x="160" y="170" width="120" height="60" as="geometry" />
        </mxCell>
        <mxCell id="fAGZzun96ZNq2qjuGH73-2" value="Susara" style="rounded=0;whiteSpace=wrap;html=1;" vertex="1" parent="1">
          <mxGeometry x="380" y="170" width="120" height="60" as="geometry" />
        </mxCell>
        <mxCell id="fAGZzun96ZNq2qjuGH73-3" value="Obrada Suve Sljive" style="rounded=0;whiteSpace=wrap;html=1;" vertex="1" parent="1">
          <mxGeometry x="380" y="290" width="120" height="60" as="geometry" />
        </mxCell>
        <mxCell id="fAGZzun96ZNq2qjuGH73-4" value="Ambalaziranje &lt;br&gt;SuveSljive" style="rounded=0;whiteSpace=wrap;html=1;" vertex="1" parent="1">
          <mxGeometry x="380" y="410" width="120" height="60" as="geometry" />
        </mxCell>
        <mxCell id="fAGZzun96ZNq2qjuGH73-5" value="Skladistenje" style="rounded=0;whiteSpace=wrap;html=1;" vertex="1" parent="1">
          <mxGeometry x="380" y="530" width="120" height="60" as="geometry" />
        </mxCell>
        <mxCell id="fAGZzun96ZNq2qjuGH73-6" value="Prodaja" style="rounded=0;whiteSpace=wrap;html=1;" vertex="1" parent="1">
          <mxGeometry x="380" y="650" width="120" height="60" as="geometry" />
        </mxCell>
        <mxCell id="9mb0LBmerOvIlV8KfZRn-1" value="Sirova Sljiva" style="endArrow=classic;html=1;rounded=0;" edge="1" parent="1">
          <mxGeometry relative="1" as="geometry">
            <mxPoint x="60" y="170" as="sourcePoint" />
            <mxPoint x="160" y="170" as="targetPoint" />
            <mxPoint as="offset" />
          </mxGeometry>
        </mxCell>
        <mxCell id="9mb0LBmerOvIlV8KfZRn-2" value="Energija" style="endArrow=classic;html=1;rounded=0;" edge="1" parent="1">
          <mxGeometry relative="1" as="geometry">
            <mxPoint x="60" y="190" as="sourcePoint" />
            <mxPoint x="160" y="190" as="targetPoint" />
          </mxGeometry>
        </mxCell>
        <mxCell id="9mb0LBmerOvIlV8KfZRn-3" value="Ambalaza" style="endArrow=classic;html=1;rounded=0;" edge="1" parent="1">
          <mxGeometry relative="1" as="geometry">
            <mxPoint x="60" y="210" as="sourcePoint" />
            <mxPoint x="160" y="210" as="targetPoint" />
          </mxGeometry>
        </mxCell>
        <mxCell id="9mb0LBmerOvIlV8KfZRn-4" value="Sirova Sljiva" style="endArrow=classic;html=1;rounded=0;" edge="1" parent="1">
          <mxGeometry relative="1" as="geometry">
            <mxPoint x="280" y="190" as="sourcePoint" />
            <mxPoint x="380" y="190" as="targetPoint" />
            <mxPoint as="offset" />
          </mxGeometry>
        </mxCell>
        <mxCell id="9mb0LBmerOvIlV8KfZRn-6" value="Energija" style="endArrow=classic;html=1;rounded=0;" edge="1" parent="1">
          <mxGeometry relative="1" as="geometry">
            <mxPoint x="280" y="209.71" as="sourcePoint" />
            <mxPoint x="380" y="209.71" as="targetPoint" />
          </mxGeometry>
        </mxCell>
        <mxCell id="9mb0LBmerOvIlV8KfZRn-7" value="&lt;br&gt;" style="endArrow=classic;html=1;rounded=0;entryX=0;entryY=0.5;entryDx=0;entryDy=0;exitX=0.75;exitY=1;exitDx=0;exitDy=0;" edge="1" parent="1" source="fAGZzun96ZNq2qjuGH73-1" target="fAGZzun96ZNq2qjuGH73-3">
          <mxGeometry relative="1" as="geometry">
            <mxPoint x="160" y="300" as="sourcePoint" />
            <mxPoint x="260" y="300" as="targetPoint" />
          </mxGeometry>
        </mxCell>
        <mxCell id="JMZoKTc4lKvc1FiQjTOt-1" value="Konzervansi" style="edgeLabel;html=1;align=center;verticalAlign=middle;resizable=0;points=[];" connectable="0" vertex="1" parent="9mb0LBmerOvIlV8KfZRn-7">
          <mxGeometry x="-0.0333" y="-1" relative="1" as="geometry">
            <mxPoint as="offset" />
          </mxGeometry>
        </mxCell>
        <mxCell id="JMZoKTc4lKvc1FiQjTOt-2" value="Konzervansi" style="endArrow=classic;html=1;rounded=0;" edge="1" parent="1">
          <mxGeometry relative="1" as="geometry">
            <mxPoint x="60" y="230" as="sourcePoint" />
            <mxPoint x="160" y="230" as="targetPoint" />
            <mxPoint as="offset" />
          </mxGeometry>
        </mxCell>
        <mxCell id="JMZoKTc4lKvc1FiQjTOt-3" value="Suva Sljiva" style="endArrow=classic;html=1;rounded=0;entryX=0.5;entryY=0;entryDx=0;entryDy=0;exitX=0.412;exitY=1.031;exitDx=0;exitDy=0;exitPerimeter=0;" edge="1" parent="1" target="fAGZzun96ZNq2qjuGH73-3">
          <mxGeometry relative="1" as="geometry">
            <mxPoint x="439.69999999999993" y="230" as="sourcePoint" />
            <mxPoint x="440.29999999999995" y="284.29999999999995" as="targetPoint" />
            <mxPoint as="offset" />
          </mxGeometry>
        </mxCell>
        <mxCell id="JMZoKTc4lKvc1FiQjTOt-4" value="Suva Sljiva Bez Kostice" style="endArrow=classic;html=1;rounded=0;entryX=0.5;entryY=0;entryDx=0;entryDy=0;exitX=0.412;exitY=1.031;exitDx=0;exitDy=0;exitPerimeter=0;" edge="1" parent="1">
          <mxGeometry relative="1" as="geometry">
            <mxPoint x="439.7099999999999" y="350" as="sourcePoint" />
            <mxPoint x="440.01" y="410" as="targetPoint" />
            <mxPoint as="offset" />
          </mxGeometry>
        </mxCell>
        <mxCell id="JMZoKTc4lKvc1FiQjTOt-5" value="Ambalazirana Suva Sljiva Paketi" style="endArrow=classic;html=1;rounded=0;entryX=0.5;entryY=0;entryDx=0;entryDy=0;exitX=0.412;exitY=1.031;exitDx=0;exitDy=0;exitPerimeter=0;" edge="1" parent="1">
          <mxGeometry relative="1" as="geometry">
            <mxPoint x="439.7099999999999" y="470" as="sourcePoint" />
            <mxPoint x="440.01" y="530" as="targetPoint" />
            <mxPoint as="offset" />
          </mxGeometry>
        </mxCell>
        <mxCell id="JMZoKTc4lKvc1FiQjTOt-6" value="Ponuda Kupcu" style="endArrow=classic;html=1;rounded=0;entryX=0.5;entryY=0;entryDx=0;entryDy=0;exitX=0.412;exitY=1.031;exitDx=0;exitDy=0;exitPerimeter=0;" edge="1" parent="1">
          <mxGeometry relative="1" as="geometry">
            <mxPoint x="439.7099999999999" y="590" as="sourcePoint" />
            <mxPoint x="440.01" y="650" as="targetPoint" />
            <mxPoint as="offset" />
          </mxGeometry>
        </mxCell>
        <mxCell id="F-dJ2zIhKCEOK4uCa9AK-1" value="Radnici" style="rounded=0;whiteSpace=wrap;html=1;" vertex="1" parent="1">
          <mxGeometry x="-60" y="170" width="120" height="60" as="geometry" />
        </mxCell>
        <mxCell id="F-dJ2zIhKCEOK4uCa9AK-2" value="Temperatura" style="endArrow=classic;html=1;rounded=0;entryX=0;entryY=0;entryDx=0;entryDy=0;exitX=0.75;exitY=0;exitDx=0;exitDy=0;" edge="1" parent="1" source="F-dJ2zIhKCEOK4uCa9AK-1" target="fAGZzun96ZNq2qjuGH73-2">
          <mxGeometry relative="1" as="geometry">
            <mxPoint x="100" y="70" as="sourcePoint" />
            <mxPoint x="310" y="90" as="targetPoint" />
            <mxPoint as="offset" />
            <Array as="points">
              <mxPoint x="210" y="140" />
            </Array>
          </mxGeometry>
        </mxCell>
        <mxCell id="F-dJ2zIhKCEOK4uCa9AK-3" value="Sklapanje Ambalaze" style="endArrow=classic;html=1;rounded=0;exitX=0.75;exitY=1;exitDx=0;exitDy=0;" edge="1" parent="1" source="F-dJ2zIhKCEOK4uCa9AK-1">
          <mxGeometry relative="1" as="geometry">
            <mxPoint x="280" y="439.71000000000004" as="sourcePoint" />
            <mxPoint x="380" y="439.71000000000004" as="targetPoint" />
            <mxPoint as="offset" />
          </mxGeometry>
        </mxCell>
      </root>
    </mxGraphModel>
  </diagram>
  <diagram id="6dIfwOEXgWM7OGxPReO9" name="Drugi Nivo Dekompozicije">
    <mxGraphModel grid="1" page="1" gridSize="10" guides="1" tooltips="1" connect="1" arrows="1" fold="1" pageScale="1" pageWidth="850" pageHeight="1100" math="0" shadow="0">
      <root>
        <mxCell id="0" />
        <mxCell id="1" parent="0" />
        <mxCell id="UIgMlyeNJlBMIlUtw3Wb-1" value="Obrada Suve Sljive" style="rounded=0;whiteSpace=wrap;html=1;" vertex="1" parent="1">
          <mxGeometry x="330" y="190" width="120" height="60" as="geometry" />
        </mxCell>
        <mxCell id="UIgMlyeNJlBMIlUtw3Wb-2" value="Vadjenje Kostice" style="rounded=0;whiteSpace=wrap;html=1;" vertex="1" parent="1">
          <mxGeometry x="330" y="280" width="120" height="60" as="geometry" />
        </mxCell>
        <mxCell id="F1QmIHLn31FCtFQceRa2-1" value="Konzervansi" style="rounded=0;whiteSpace=wrap;html=1;" vertex="1" parent="1">
          <mxGeometry x="330" y="370" width="120" height="60" as="geometry" />
        </mxCell>
        <mxCell id="F1QmIHLn31FCtFQceRa2-2" value="Bombonski Sirup" style="rounded=0;whiteSpace=wrap;html=1;" vertex="1" parent="1">
          <mxGeometry x="330" y="460" width="120" height="60" as="geometry" />
        </mxCell>
        <mxCell id="F1QmIHLn31FCtFQceRa2-3" value="Kandiranje Sljive" style="rounded=0;whiteSpace=wrap;html=1;" vertex="1" parent="1">
          <mxGeometry x="330" y="550" width="120" height="60" as="geometry" />
        </mxCell>
        <mxCell id="y6eGOzuvgJYNPS4MVSuE-1" value="" style="endArrow=classic;html=1;rounded=0;entryX=0.5;entryY=0;entryDx=0;entryDy=0;exitX=0.5;exitY=1;exitDx=0;exitDy=0;" edge="1" parent="1" source="UIgMlyeNJlBMIlUtw3Wb-1" target="UIgMlyeNJlBMIlUtw3Wb-2">
          <mxGeometry width="50" height="50" relative="1" as="geometry">
            <mxPoint x="330" y="300" as="sourcePoint" />
            <mxPoint x="380" y="250" as="targetPoint" />
          </mxGeometry>
        </mxCell>
        <mxCell id="y6eGOzuvgJYNPS4MVSuE-2" value="" style="endArrow=classic;html=1;rounded=0;entryX=0.5;entryY=0;entryDx=0;entryDy=0;exitX=0.5;exitY=1;exitDx=0;exitDy=0;" edge="1" parent="1">
          <mxGeometry width="50" height="50" relative="1" as="geometry">
            <mxPoint x="389.71" y="340" as="sourcePoint" />
            <mxPoint x="389.71" y="370" as="targetPoint" />
          </mxGeometry>
        </mxCell>
        <mxCell id="y6eGOzuvgJYNPS4MVSuE-3" value="" style="endArrow=classic;html=1;rounded=0;entryX=0.5;entryY=0;entryDx=0;entryDy=0;exitX=0.5;exitY=1;exitDx=0;exitDy=0;" edge="1" parent="1">
          <mxGeometry width="50" height="50" relative="1" as="geometry">
            <mxPoint x="389.71" y="430" as="sourcePoint" />
            <mxPoint x="389.71" y="460" as="targetPoint" />
          </mxGeometry>
        </mxCell>
        <mxCell id="y6eGOzuvgJYNPS4MVSuE-4" value="" style="endArrow=classic;html=1;rounded=0;entryX=0.5;entryY=0;entryDx=0;entryDy=0;exitX=0.5;exitY=1;exitDx=0;exitDy=0;" edge="1" parent="1">
          <mxGeometry width="50" height="50" relative="1" as="geometry">
            <mxPoint x="389.71" y="520" as="sourcePoint" />
            <mxPoint x="389.71" y="550" as="targetPoint" />
          </mxGeometry>
        </mxCell>
      </root>
    </mxGraphModel>
  </diagram>
  <diagram id="9HhLY4lii7pGrRSuGVXu" name="Stablo Aktivnosti">
    <mxGraphModel grid="1" page="1" gridSize="10" guides="1" tooltips="1" connect="1" arrows="1" fold="1" pageScale="1" pageWidth="850" pageHeight="1100" math="0" shadow="0">
      <root>
        <mxCell id="0" />
        <mxCell id="1" parent="0" />
        <mxCell id="A7RUZ68qaiqdBnnKJfI4-1" value="Radnici" style="rounded=0;whiteSpace=wrap;html=1;" vertex="1" parent="1">
          <mxGeometry x="330" y="190" width="120" height="60" as="geometry" />
        </mxCell>
        <mxCell id="A7RUZ68qaiqdBnnKJfI4-2" value="Susara" style="rounded=0;whiteSpace=wrap;html=1;" vertex="1" parent="1">
          <mxGeometry x="330" y="310" width="120" height="60" as="geometry" />
        </mxCell>
        <mxCell id="A7RUZ68qaiqdBnnKJfI4-3" value="Obrada Suve Sljive" style="rounded=0;whiteSpace=wrap;html=1;" vertex="1" parent="1">
          <mxGeometry x="510" y="310" width="120" height="60" as="geometry" />
        </mxCell>
        <mxCell id="A7RUZ68qaiqdBnnKJfI4-4" value="Nabavka" style="rounded=0;whiteSpace=wrap;html=1;" vertex="1" parent="1">
          <mxGeometry x="150" y="310" width="120" height="60" as="geometry" />
        </mxCell>
        <mxCell id="JXmZc1MWs-_2ct-r74Uw-1" value="" style="endArrow=classic;html=1;rounded=0;entryX=0.5;entryY=0;entryDx=0;entryDy=0;exitX=0.5;exitY=1;exitDx=0;exitDy=0;" edge="1" parent="1" target="A7RUZ68qaiqdBnnKJfI4-2">
          <mxGeometry width="50" height="50" relative="1" as="geometry">
            <mxPoint x="390" y="250" as="sourcePoint" />
            <mxPoint x="390" y="280" as="targetPoint" />
          </mxGeometry>
        </mxCell>
        <mxCell id="JXmZc1MWs-_2ct-r74Uw-2" value="" style="endArrow=classic;html=1;rounded=0;entryX=0;entryY=0;entryDx=0;entryDy=0;exitX=1;exitY=1;exitDx=0;exitDy=0;" edge="1" parent="1" source="A7RUZ68qaiqdBnnKJfI4-1" target="A7RUZ68qaiqdBnnKJfI4-3">
          <mxGeometry width="50" height="50" relative="1" as="geometry">
            <mxPoint x="400" y="260" as="sourcePoint" />
            <mxPoint x="400" y="290" as="targetPoint" />
          </mxGeometry>
        </mxCell>
        <mxCell id="JXmZc1MWs-_2ct-r74Uw-3" value="" style="endArrow=classic;html=1;rounded=0;entryX=1;entryY=0;entryDx=0;entryDy=0;exitX=0;exitY=1;exitDx=0;exitDy=0;" edge="1" parent="1" source="A7RUZ68qaiqdBnnKJfI4-1" target="A7RUZ68qaiqdBnnKJfI4-4">
          <mxGeometry width="50" height="50" relative="1" as="geometry">
            <mxPoint x="410" y="270" as="sourcePoint" />
            <mxPoint x="410" y="300" as="targetPoint" />
          </mxGeometry>
        </mxCell>
        <mxCell id="KLOvvdaJgKDzxsc5pme4-1" value="-Kontrola Temperature" style="text;html=1;strokeColor=none;fillColor=none;align=center;verticalAlign=middle;whiteSpace=wrap;rounded=0;" vertex="1" parent="1">
          <mxGeometry x="330" y="380" width="140" height="30" as="geometry" />
        </mxCell>
        <mxCell id="KLOvvdaJgKDzxsc5pme4-2" value="-Kontrola Kvaliteta" style="text;html=1;strokeColor=none;fillColor=none;align=center;verticalAlign=middle;whiteSpace=wrap;rounded=0;" vertex="1" parent="1">
          <mxGeometry x="320" y="410" width="140" height="30" as="geometry" />
        </mxCell>
        <mxCell id="KLOvvdaJgKDzxsc5pme4-3" value="-Ukupna Tezina sljive" style="text;html=1;strokeColor=none;fillColor=none;align=center;verticalAlign=middle;whiteSpace=wrap;rounded=0;" vertex="1" parent="1">
          <mxGeometry x="330" y="440" width="140" height="30" as="geometry" />
        </mxCell>
        <mxCell id="KLOvvdaJgKDzxsc5pme4-4" value="- Ambalaza" style="text;html=1;strokeColor=none;fillColor=none;align=center;verticalAlign=middle;whiteSpace=wrap;rounded=0;" vertex="1" parent="1">
          <mxGeometry x="110" y="380" width="140" height="30" as="geometry" />
        </mxCell>
        <mxCell id="KLOvvdaJgKDzxsc5pme4-5" value="- Konzervansi" style="text;html=1;strokeColor=none;fillColor=none;align=center;verticalAlign=middle;whiteSpace=wrap;rounded=0;" vertex="1" parent="1">
          <mxGeometry x="120" y="400" width="140" height="30" as="geometry" />
        </mxCell>
        <mxCell id="6V2lA1Fip_ZRJFN-lRP7-1" value="- Sirova Sljiva" style="text;html=1;strokeColor=none;fillColor=none;align=center;verticalAlign=middle;whiteSpace=wrap;rounded=0;" vertex="1" parent="1">
          <mxGeometry x="120" y="420" width="140" height="30" as="geometry" />
        </mxCell>
        <mxCell id="VOYQmOkAom7VJTYGUqob-1" value="- Energija" style="text;html=1;strokeColor=none;fillColor=none;align=center;verticalAlign=middle;whiteSpace=wrap;rounded=0;" vertex="1" parent="1">
          <mxGeometry x="110" y="440" width="140" height="30" as="geometry" />
        </mxCell>
        <mxCell id="VOYQmOkAom7VJTYGUqob-2" value="- Vadjenje Kostice" style="text;html=1;strokeColor=none;fillColor=none;align=center;verticalAlign=middle;whiteSpace=wrap;rounded=0;" vertex="1" parent="1">
          <mxGeometry x="510" y="380" width="140" height="30" as="geometry" />
        </mxCell>
        <mxCell id="VOYQmOkAom7VJTYGUqob-3" value="- Kandiranje Sljive" style="text;html=1;strokeColor=none;fillColor=none;align=center;verticalAlign=middle;whiteSpace=wrap;rounded=0;" vertex="1" parent="1">
          <mxGeometry x="510" y="400" width="140" height="30" as="geometry" />
        </mxCell>
      </root>
    </mxGraphModel>
  </diagram>
</mxfile>
